<?xml version="1.0" encoding="iso-8859-1"?>
<!-- Generator: Adobe Illustrator 22.1.0, SVG Export Plug-In . SVG Version: 6.00 Build 0)  -->
<svg version="1.1" id="Layer_1" xmlns="http://www.w3.org/2000/svg" xmlns:xlink="http://www.w3.org/1999/xlink" x="0px" y="0px"
	 viewBox="0 0 18.959 32.207" style="enable-background:new 0 0 18.959 32.207;" xml:space="preserve">
<g id="logo_x60_19x33">
	<polygon style="fill:#405C70;" points="18.959,25.987 9.591,30.815 0,25.901 9.368,21.072 	"/>
	<polygon style="fill:#2F4352;" points="15.003,23.96 9.498,26.797 3.863,23.91 9.368,21.072 	"/>
	<polygon style="fill:#1C2830;" points="9.591,30.828 18.959,26 18.959,27.378 9.591,32.207 	"/>
	<polygon style="fill:#19242B;" points="9.591,30.828 0,25.901 0,27.279 9.591,32.207 	"/>
	<polygon style="fill:#0A848F;" points="9.688,23.017 17.325,19.079 17.325,20.228 9.688,24.165 	"/>
	<polygon style="fill:#076870;" points="9.688,23.017 2.049,19.079 2.049,20.228 9.688,24.165 	"/>
	<polygon style="fill:#4EBFC9;" points="17.325,19.079 9.688,23.017 2.049,19.079 9.688,15.143 	"/>
	<polygon style="opacity:0.42;fill:#0B194F;" points="15.311,18.046 9.688,20.945 4.063,18.046 9.688,15.148 	"/>
	<polygon style="fill:#43C494;" points="9.688,16.896 18.942,12.127 18.942,13.517 9.688,18.287 	"/>
	<polygon style="fill:#4AAA88;" points="9.688,16.896 0.432,12.127 0.432,13.517 9.688,18.287 	"/>
	<polygon style="fill:#7FE0BF;" points="18.942,12.127 9.688,16.896 0.432,12.127 9.688,7.356 	"/>
	<polygon style="opacity:0.76;fill:#43C4A6;" points="16.501,10.873 9.688,14.386 2.873,10.873 9.688,7.361 	"/>
	<polygon style="fill:#FDE5A6;" points="18.94,4.803 9.623,9.604 0.306,4.803 9.623,0 	"/>
	<polygon style="fill:#E9D399;" points="9.623,9.604 18.94,4.803 18.94,6.204 9.623,11.006 	"/>
	<polygon style="fill:#D9BB6F;" points="9.623,9.604 0.306,4.803 0.306,6.204 9.623,11.006 	"/>
</g>
</svg>
