<svg enable-background="new 0 0 18.959 32.207" viewBox="0 0 18.959 32.207" xmlns="http://www.w3.org/2000/svg"><path d="m18.959 25.987-9.368 4.828-9.591-4.914 9.368-4.829z" fill="#405c70"/><path d="m15.003 23.96-5.505 2.837-5.635-2.887 5.505-2.838z" fill="#2f4352"/><path d="m9.591 30.828 9.368-4.828v1.378l-9.368 4.829z" fill="#1c2830"/><path d="m9.591 30.828-9.591-4.927v1.378l9.591 4.928z" fill="#19242b"/><path d="m9.688 23.017 7.637-3.938v1.149l-7.637 3.937z" fill="#0a848f"/><path d="m9.688 23.017-7.639-3.938v1.149l7.639 3.937z" fill="#076870"/><path d="m17.325 19.079-7.637 3.938-7.639-3.938 7.639-3.936z" fill="#4ebfc9"/><path d="m15.311 18.046-5.623 2.899-5.625-2.899 5.625-2.898z" fill="#0b194f" opacity=".42"/><path d="m9.688 16.896 9.254-4.769v1.39l-9.254 4.77z" fill="#43c494"/><path d="m9.688 16.896-9.256-4.769v1.39l9.256 4.77z" fill="#4aaa88"/><path d="m18.942 12.127-9.254 4.769-9.256-4.769 9.256-4.771z" fill="#7fe0bf"/><path d="m16.501 10.873-6.813 3.513-6.815-3.513 6.815-3.512z" fill="#43c4a6" opacity=".76"/><path d="m18.94 4.803-9.317 4.801-9.317-4.801 9.317-4.803z" fill="#fde5a6"/><path d="m9.623 9.604 9.317-4.801v1.401l-9.317 4.802z" fill="#e9d399"/><path d="m9.623 9.604-9.317-4.801v1.401l9.317 4.802z" fill="#d9bb6f"/></svg>