<svg enable-background="new 0 0 340 340" viewBox="0 0 340 340" xmlns="http://www.w3.org/2000/svg"><path d="m292.4 190.4h-22.2c-5.5 0-13.9 2.3-18.6 5.1l-152.8 89.9c-4.7 2.8-13.1 5.1-18.6 5.1h-32.2-37.8-10v40c0 5.5 4.5 10 10 10h320c5.5 0 10-4.5 10-10v-40h-10-37.8-32.2c-5.5 0-13.9-2.3-18.6-5.1l-45.8-26.9c-4.7-2.8-4.7-7.4 0-10.1l21.8-12.8c4.7-2.8 12.5-2.8 17.2 0l16.8 9.9c4.7 2.8 13.1 5.1 18.6 5.1h22.2 37.8 10v-60h-10-37.8z"/><path d="m292.4 90.4h-22.2c-5.5 0-13.9 2.3-18.6 5.1l-152.8 89.9c-4.7 2.8-13.1 5.1-18.6 5.1h-32.2-37.8-10v60h10 37.8 22.2c5.5 0 13.9-2.3 18.6-5.1l152.8-89.9c4.7-2.8 13.1-5.1 18.6-5.1h32.2 37.8 10v-60h-10z"/><path d="m330.2.4h-320c-5.5 0-10 4.5-10 10v40h10 37.8 32.2c5.5 0 13.9 2.3 18.6 5.1l45.8 26.9c4.7 2.8 4.7 7.4 0 10.1l-21.8 12.8c-4.7 2.8-12.5 2.8-17.2 0l-16.8-9.9c-4.7-2.8-13.1-5.1-18.6-5.1h-22.2-37.8-10v60h10 37.8 22.2c5.5 0 13.9-2.3 18.6-5.1l152.8-89.9c4.7-2.8 13.1-5.1 18.6-5.1h32.2 37.8 10v-40c0-5.3-4.5-9.8-10-9.8z"/></svg>