<svg viewBox="0 0 86.35 86.35" xmlns="http://www.w3.org/2000/svg"><rect fill="#0060ff" height="86.35" rx="25.9" width="86.35"/><g fill="#fff" transform="translate(-18.02 -15.13)"><path d="m63.32 48.15-9.16 21.85a3.31 3.31 0 0 1 -1.16 1.43 2.92 2.92 0 0 1 -1.73.55h-.53a3 3 0 0 1 -1.74-.55 3.28 3.28 0 0 1 -1.15-1.43l-9.16-21.85a2.85 2.85 0 0 1 -.26-1.15 2.4 2.4 0 0 1 .68-1.71 2.27 2.27 0 0 1 1.69-.71 2.3 2.3 0 0 1 1.29.4 2.21 2.21 0 0 1 .91 1.02l8 20.4 8-20.41a2.49 2.49 0 0 1 2.16-1.37 2.27 2.27 0 0 1 1.69.71 2.4 2.4 0 0 1 .73 1.67 3 3 0 0 1 -.26 1.15z"/><path d="m83.71 48.15-9.16 21.85a3.31 3.31 0 0 1 -1.16 1.39 2.92 2.92 0 0 1 -1.73.55h-.53a3 3 0 0 1 -1.74-.55 3.28 3.28 0 0 1 -1.15-1.39l-4.56-10.9 2.5-6 5.21 13.3 8-20.41a2.3 2.3 0 0 1 .87-1 2.33 2.33 0 0 1 3 .31 2.4 2.4 0 0 1 .74 1.7 3 3 0 0 1 -.29 1.15z"/></g></svg>