<svg height="160pt" preserveAspectRatio="xMidYMid meet" viewBox="0 0 160 160" width="160pt" xmlns="http://www.w3.org/2000/svg"><path d="m851 1438c-6-29-12-68-13-85-2-28-6-33-28-33-19 0-31 11-53 48-44 73-84 119-96 107-5-5-12-30-16-55-3-25-8-58-11-75-3-16-6-48-6-70-1-67-19-69-117-12-47 27-99 57-116 67-16 10-69 40-117 68-94 55-128 69-128 53 0-10 109-144 122-149 5-2 8-7 8-12s12-21 27-37c16-15 48-53 73-82 25-30 62-74 83-99 39-46 44-57 27-67-14-8-56-74-94-145-66-124-86-156-144-235-69-93-82-120-82-171 0-45 18-88 65-152 28-40 46-54 77-63 62-16 128-3 195 40 145 94 159 99 310 105l103 5 10-42c6-23 16-60 22-82 43-165 157-173 334-21 26 22 54 41 63 41 9 1 28 2 42 3s43 13 63 27c41 28 46 29 46 15 0-17 43-70 56-70 7 0 15-6 18-12 3-7 3 16-1 52-8 87-7 147 4 195 13 58 1 279-21 373-8 37-50 102-101 157-25 28-69 84-97 125s-67 90-87 108c-48 43-126 71-209 74l-68 3-53 78c-29 42-59 77-66 77-8 0-18-21-24-52z" transform="matrix(.1 0 0 -.1 0 160)"/></svg>